#!OML:ASF I:\Random Stuff\random\construction\7_22_03\Session 2\subj1.ASF
:FULLY-SPECIFIED
:DEGREES
830
root -23.384 17.9946 2.37946 12.9787 -14.0323 364.183
lowerback 9.0198 0.502213 6.72736
upperback 1.48589 1.37478 2.00429
thorax -3.40331 0.607672 -1.85506
lowerneck -23.8537 2.41538 3.77128
upperneck 35.1753 0.641612 2.8833
head 16.7968 1.1976 0.755872
rclavicle 2.22639e-014 0
rhumerus -19.2545 19.0885 -87.2453
rradius 39.0748
rwrist -18.8261
rhand -38.3957 14.7964
rfingers 7.12502
rthumb -11.4209 -14.8726
lclavicle 2.22639e-014 0
lhumerus -35.7775 -51.7953 105.22
lradius 70.2003
lwrist 20.2076
lhand -18.9424 51.7433
lfingers 7.12502
lthumb 7.36078 -638.405
rfemur -32.0011 44.0159 2.32019
rtibia 25.0026
rfoot -65.9335 -63.1701
rtoes 34.3655
lfemur -14.1516 -2.86452 -12.998
ltibia 13.3611
lfoot -7.87753 23.7011
ltoes -9.50747
831
root -23.3347 17.9854 2.4133 12.8623 -13.2337 363.496
lowerback 8.79444 0.657692 7.01521
upperback 1.35673 1.59583 2.00047
thorax -3.38679 0.71193 -2.0411
lowerneck -23.8595 2.25429 3.51481
upperneck 35.4385 0.516957 2.87836
head 16.9298 1.11741 0.778778
rclavicle -1.43125e-014 -1.59028e-014
rhumerus -20.2074 18.7567 -86.8875
rradius 39.2923
rwrist -18.9448
rhand -38.1641 14.0562
rfingers 7.12502
rthumb -11.1976 -15.625
lclavicle -1.43125e-014 -1.59028e-014
lhumerus -36.8499 -51.0923 105.306
lradius 69.8384
lwrist 20.8888
lhand -19.6883 52.2043
lfingers 7.12502
lthumb 6.64068 -637.92
rfemur -29.9235 39.4833 4.83468
rtibia 24.5593
rfoot -61.3091 -58.0284
rtoes 39.3667
lfemur -13.8944 -2.84878 -12.1079
ltibia 12.895
lfoot -6.89049 24.7032
ltoes -12.6664
832
root -23.2768 17.9783 2.44578 12.709 -12.298 362.759
lowerback 8.62626 0.678262 7.27483
upperback 1.30007 1.63803 2.06636
thorax -3.34327 0.730539 -2.11875
lowerneck -24.0207 2.17151 3.44117
upperneck 35.7558 0.484376 2.70656
head 17.133 1.075 0.717812
rclavicle -1.07344e-014 1.74931e-014
rhumerus -20.8434 18.6012 -86.5183
rradius 39.2518
rwrist -18.9314
rhand -37.7437 13.4381
rfingers 7.12502
rthumb -10.792 -16.2647
lclavicle -1.07344e-014 1.74931e-014
lhumerus -37.6046 -49.8006 105.199
lradius 69.3756
lwrist 21.2322
lhand -20.3543 52.7353
lfingers 7.12502
lthumb 5.99776 -637.37
rfemur -27.9941 34.745 7.12019
rtibia 24.0147
rfoot -58.0162 -52.3492
rtoes 44.0132
lfemur -13.7837 -3.31583 -11.1092
ltibia 12.6167
lfoot -5.3044 25.6221
ltoes -19.4497
833
root -23.2116 17.9704 2.48135 12.4724 -11.3776 362.138
lowerback 8.50132 0.660385 7.41633
upperback 1.2679 1.62025 2.12592
thorax -3.30664 0.721211 -2.13131
lowerneck -24.0983 2.15982 3.22231
upperneck 36.0989 0.56569 2.69145
head 17.3302 1.08086 0.775976
rclavicle -1.31198e-014 -2.06736e-014
rhumerus -21.4259 18.4679 -86.0778
rradius 39.0916
rwrist -18.6375
rhand -36.9451 12.5687
rfingers 7.12502
rthumb -10.0217 -17.1727
lclavicle -1.31198e-014 -2.06736e-014
lhumerus -38.2217 -48.1948 105.007
lradius 68.8134
lwrist 21.2086
lhand -20.6601 53.7864
lfingers 7.12502
lthumb 5.70249 -636.31
rfemur -26.2123 29.8972 9.01099
rtibia 23.4398
rfoot -55.4174 -46.392
rtoes 48.2511
lfemur -13.7209 -4.13613 -10.2189
ltibia 12.4821
lfoot -7.94724 27.2996
ltoes -11.5027
834
root -23.1396 17.9604 2.51951 12.2527 -10.4779 361.699
lowerback 8.29691 0.709648 7.44172
upperback 1.2401 1.66862 2.06681
thorax -3.21464 0.747667 -2.20796
lowerneck -24.0086 2.13939 3.03879
upperneck 36.2678 0.586902 2.7929
head 17.3956 1.08263 0.862029
rclavicle -3.85642e-014 -3.18055e-015
rhumerus -21.9417 18.0725 -85.611
rradius 38.7944
rwrist -18.2143
rhand -36.105 11.6128
rfingers 7.12502
rthumb -9.21111 -18.166
lclavicle -3.85642e-014 -3.18055e-015
lhumerus -38.5955 -46.5327 104.545
lradius 68.0433
lwrist 20.5435
lhand -20.3045 54.2187
lfingers 7.12502
lthumb 6.04581 -635.888
rfemur -24.6956 24.9423 10.4134
rtibia 22.8885
rfoot -52.9604 -40.3702
rtoes 52.3157
lfemur -13.8027 -4.93935 -9.57193
ltibia 12.4476
lfoot -9.20785 28.9656
ltoes -6.49342
835
root -23.0645 17.9485 2.55847 12.0096 -9.56506 361.271
lowerback 8.11798 0.796086 7.46249
upperback 1.25931 1.76284 1.93485
thorax -3.08099 0.799115 -2.36203
lowerneck -24.0419 1.97672 3.09355
upperneck 36.3901 0.317985 2.79716
head 17.4721 0.987572 0.800829
rclavicle -2.78299e-015 -2.22639e-014
rhumerus -22.3531 17.4436 -85.194
rradius 38.3836
rwrist -17.7151
rhand -35.3387 10.7416
rfingers 7.12502
rthumb -8.47169 -19.0684
lclavicle -2.78299e-015 -2.22639e-014
lhumerus -38.5189 -44.1238 103.703
lradius 66.9851
lwrist 18.6068
lhand -19.7342 53.3193
lfingers 7.12502
lthumb 6.59638 -636.803
rfemur -23.3622 19.978 11.6176
rtibia 22.4594
rfoot -50.5014 -34.5687
rtoes 55.8567
lfemur -13.8748 -5.62882 -9.01919
ltibia 12.4168
lfoot -10.3868 30.5762
ltoes -5.38626
836
root -22.9875 17.9328 2.60022 11.6648 -8.68525 360.816
lowerback 8.02278 0.791388 7.35041
upperback 1.36377 1.73118 1.90214
thorax -2.92401 0.792539 -2.32704
lowerneck -24.1062 1.86607 3.10966
upperneck 36.375 0.172356 2.74141
head 17.4802 0.925113 0.742174
rclavicle -1.31198e-014 3.18055e-015
rhumerus -22.6113 17.0354 -84.7379
rradius 37.969
rwrist -17.161
rhand -34.3003 9.55435
rfingers 7.12502
rthumb -7.46944 -20.2938
lclavicle -1.31198e-014 3.18055e-015
lhumerus -38.0605 -40.3289 102.445
lradius 65.909
lwrist 14.917
lhand -19.1459 51.0882
lfingers 7.12502
lthumb 7.16434 -639.053
rfemur -22.099 15.083 12.6948
rtibia 22.1787
rfoot -48.1245 -29.0494
rtoes 58.883
lfemur -13.8176 -5.52786 -8.66803
ltibia 12.4137
lfoot -11.4442 31.6963
ltoes -6.87245
837
root -22.9064 17.9171 2.64318 11.3197 -7.82596 360.428
lowerback 7.95358 0.794742 7.12479
upperback 1.45002 1.70512 1.87934
thorax -2.80388 0.787909 -2.22
lowerneck -24.0125 1.81404 3.07328
upperneck 36.2589 0.169424 2.64628
head 17.3927 0.904374 0.701201
rclavicle 5.96354e-015 7.95139e-015
rhumerus -22.9288 16.3151 -84.1754
rradius 37.7751
rwrist -16.8123
rhand -32.6976 7.60384
rfingers 7.12502
rthumb -5.92223 -22.2934
lclavicle 5.96354e-015 7.95139e-015
lhumerus -37.6846 -36.0512 101.11
lradius 65.0463
lwrist 10.3396
lhand -18.9841 48.2004
lfingers 7.12502
lthumb 7.32048 -641.946
rfemur -21.3179 10.3763 13.7926
rtibia 22.4521
rfoot -44.6873 -26.4686
rtoes 59.6224
lfemur -15.2625 -5.14601 -8.53672
ltibia 15.548
lfoot -14.0244 32.1556
ltoes -8.8413
838
root -22.8206 17.8992 2.68248 11.1065 -6.98058 360.067
lowerback 7.84134 0.865569 6.84825
upperback 1.46887 1.76485 1.84969
thorax -2.72397 0.82321 -2.09968
lowerneck -23.8317 1.72625 2.99413
upperneck 36.0904 0.122801 2.58878
head 17.256 0.865165 0.673644
rclavicle 1.43125e-014 -1.03368e-014
rhumerus -23.4776 15.2863 -83.5542
rradius 38.096
rwrist -17.246
rhand -30.8578 5.23398
rfingers 7.12502
rthumb -4.14581 -24.7054
lclavicle 1.43125e-014 -1.03368e-014
lhumerus -37.3989 -31.7901 99.859
lradius 64.2615
lwrist 6.03942
lhand -19.3652 44.9931
lfingers 7.12502
lthumb 6.95261 -645.141
rfemur -20.8532 9.35632 14.0684
rtibia 22.7183
rfoot -44.7658 -25.8659
rtoes 59.9196
lfemur -16.5986 -4.11874 -8.5867
ltibia 18.2261
lfoot -15.393 31.7518
ltoes -11.0254
839
root -22.6992 17.631 2.71128 10.5791 -6.38976 359.528
lowerback 7.98519 0.967266 6.80507
upperback 1.63598 1.89945 1.84909
thorax -2.61989 0.896989 -2.09027
lowerneck -23.6653 1.71336 2.7719
upperneck 35.8218 0.143536 2.80405
head 17.071 0.872921 0.806508
rclavicle 1.39149e-014 1.90833e-014
rhumerus -24.2017 14.4223 -82.9416
rradius 38.9918
rwrist -18.4983
rhand -29.3744 3.06472
rfingers 7.12502
rthumb -2.71334 -26.8978
lclavicle 1.39149e-014 1.90833e-014
lhumerus -37.0855 -27.5817 98.6056
lradius 63.6474
lwrist 3.11596
lhand -19.7929 42.7063
lfingers 7.12502
lthumb 6.5397 -647.415
rfemur -13.8094 15.7269 17.1937
rtibia 23.0264
rfoot -58.1562 -8.03017
rtoes 66.7737
lfemur -17.6117 -2.96985 -8.52094
ltibia 20.9655
lfoot -16.075 31.1751
ltoes -11.2035
840
root -22.5901 17.6104 2.76206 10.3216 -5.74598 358.862
lowerback 7.98826 1.09414 7.03509
upperback 1.69342 2.08256 1.80611
thorax -2.5359 0.990203 -2.27912
lowerneck -23.6093 1.65621 2.68071
upperneck 35.7122 0.0447472 2.97676
head 17.0007 0.847181 0.87656
rclavicle 5.56597e-015 1.90833e-014
rhumerus -25.1411 13.2798 -82.3446
rradius 40.256
rwrist -19.5626
rhand -28.0615 1.13365
rfingers 7.12502
rthumb -1.44531 -28.8412
lclavicle 5.56597e-015 1.90833e-014
lhumerus -36.8763 -23.9821 97.4729
lradius 63.3388
lwrist 2.31449
lhand -20.6393 43.1037
lfingers 7.12502
lthumb 5.72258 -646.994
rfemur -13.244 19.2284 17.7055
rtibia 23.0391
rfoot -61.8285 -9.72504
rtoes 66.62
lfemur -18.5177 -1.56001 -8.49198
ltibia 23.2975
lfoot -17.1877 29.3071
ltoes -12.2227
841
root -22.4718 17.5937 2.81324 10.0949 -5.13276 358.132
lowerback 8.06526 1.2633 7.36518
upperback 1.71026 2.33888 1.75447
thorax -2.5221 1.11607 -2.54192
lowerneck -23.6064 1.5638 2.68735
upperneck 35.6668 -0.154508 3.14631
head 16.9799 0.795298 0.909241
rclavicle 1.13307e-014 1.11319e-014
rhumerus -26.2897 12.0418 -81.7415
rradius 41.8116
rwrist -19.8038
rhand -26.365 -0.547173
rfingers 7.12502
rthumb 0.193175 -30.5268
lclavicle 1.13307e-014 1.11319e-014
lhumerus -36.7391 -21.0811 96.61
lradius 63.1417
lwrist 3.22674
lhand -22.3026 45.1508
lfingers 7.12502
lthumb 4.11654 -644.909
rfemur -12.5503 22.7493 18.2797
rtibia 22.7916
rfoot -65.5287 -11.2151
rtoes 66.4936
lfemur -19.443 -0.662948 -8.34336
ltibia 25.6019
lfoot -17.8803 28.0412
ltoes -14.2717
842
root -22.3467 17.5827 2.86627 9.98054 -4.45333 357.234
lowerback 8.08338 1.41811 7.80309
upperback 1.71106 2.58418 1.81592
thorax -2.49036 1.23618 -2.7442
lowerneck -23.8488 1.46598 2.61841
upperneck 35.9258 -0.367119 3.35135
head 17.1801 0.738563 0.979131
rclavicle -1.49089e-014 1.82882e-014
rhumerus -27.6321 11.2604 -81.081
rradius 43.7349
rwrist -18.965
rhand -23.7965 -1.89105
rfingers 7.12502
rthumb 2.6739 -31.854
lclavicle -1.49089e-014 1.82882e-014
lhumerus -36.5843 -18.7194 96.0053
lradius 62.968
lwrist 5.09117
lhand -24.2815 47.674
lfingers 7.12502
lthumb 2.20548 -642.358
rfemur -11.6218 26.2124 19.0191
rtibia 21.9236
rfoot -69.2091 -12.7004
rtoes 66.3813
lfemur -19.7487 -0.480815 -7.8516
ltibia 26.3445
lfoot -17.479 27.8723
ltoes -15.7232
843
root -22.2183 17.5747 2.91549 9.85661 -3.71842 356.305
lowerback 8.23732 1.56971 8.25732
upperback 1.68924 2.84429 1.93589
thorax -2.55542 1.35917 -2.90124
lowerneck -23.6814 1.366 2.25939
upperneck 35.6502 -0.491741 3.75585
head 16.9972 0.697102 1.18872
rclavicle 3.43897e-014 1.11319e-014
rhumerus -29.1875 10.7994 -80.381
rradius 45.9096
rwrist -16.3888
rhand -20.27 -2.81173
rfingers 7.12502
rthumb 6.0791 -32.7045
lclavicle 3.43897e-014 1.11319e-014
lhumerus -36.4 -16.8435 95.6161
lradius 62.7
lwrist 7.18465
lhand -26.1772 50.1411
lfingers 7.12502
lthumb 0.374574 -639.88
rfemur -10.661 29.6081 19.831
rtibia 21.0508
rfoot -72.9541 -13.8921
rtoes 66.3024
lfemur -20.084 -0.47483 -7.2434
ltibia 27.136
lfoot -17.5898 27.1611
ltoes -17.7926
